<?xml version="1.0" encoding="utf-8"?>
<!-- Generator: Adobe Illustrator 24.0.1, SVG Export Plug-In . SVG Version: 6.00 Build 0)  -->
<svg version="1.1"
	 id="svg2" xmlns:cc="http://creativecommons.org/ns#" xmlns:dc="http://purl.org/dc/elements/1.1/" xmlns:rdf="http://www.w3.org/1999/02/22-rdf-syntax-ns#" xmlns:svg="http://www.w3.org/2000/svg"
	 xmlns="http://www.w3.org/2000/svg" xmlns:xlink="http://www.w3.org/1999/xlink" x="0px" y="0px" viewBox="0 0 1100 767.5"
	 style="enable-background:new 0 0 1100 767.5;" xml:space="preserve">
<style type="text/css">
	.st0{fill:#FFFE00;}
</style>
<path id="path2987" class="st0" d="M310.9,516.1c0-0.8-0.2-1.3-0.5-1.1s-0.9-0.5-1.4-1.6c-0.5-1.1-1.2-2-1.7-2
	c-0.7,0-0.8-0.2-0.3-0.8c0.5-0.6,0.5-0.8-0.1-1c-0.6-0.2-0.5-0.5,0.1-1.2c0.6-0.8,0.7-1.1,0.1-1.2c-0.4-0.1-0.7-0.5-0.7-0.8
	s0.2-0.4,0.5-0.2c0.3,0.2,0.4,0,0.2-0.5c-0.2-0.5,0-0.9,0.3-0.9c0.5,0,0.5-0.3,0-1.1c-0.5-0.9-0.4-1.1,0.3-1.1
	c0.7,0,0.7-0.1,0.2-0.7c-0.7-0.8-2.1-0.1-1.9,0.9c0,0.3-0.2,0.6-0.6,0.7c-0.4,0.2-0.5-0.2-0.3-1c0.2-0.7,0.1-1.1-0.2-0.9
	c-0.3,0.2-1,0.1-1.6-0.1c-0.9-0.3-0.6-0.5,1.2-0.8c1.5-0.3,2.3-0.7,2.3-1.2c0-0.4,0.5-0.8,1.1-0.8c0.6,0,1.4-0.5,1.8-1.1
	c0.7-1.1,3.6-2.5,4.5-2.3c0.3,0.1,1.9-0.2,3.6-0.7c1.7-0.4,4.7-1,6.6-1.2s3.6-0.6,3.8-0.9s0.9-0.5,1.5-0.5c0.7,0,2.7-0.7,4.5-1.6
	c1.8-0.9,3.7-1.6,4.2-1.6c0.5,0,1.1-0.3,1.3-0.6c0.2-0.3,0.1-0.6-0.3-0.6c-0.8,0-0.5-2.5,0.3-2.5c0.3,0,1.6-0.4,3-0.7s3-0.5,3.8-0.4
	c0.7,0.2,2.1,0.1,3.1-0.2c1-0.3,3.1-0.8,4.8-1.1c4.6-0.9,7.1-1.7,7.1-2.2c0-0.5-28.3-0.2-35.3,0.5c-3.7,0.3-5.1,0.2-6.6-0.4
	c-1.1-0.5-2.1-0.9-2.2-0.9c-0.2,0-1-0.4-1.9-0.7c-0.9-0.4-2-0.5-2.5-0.3c-0.5,0.2-7.8,0.4-16.3,0.5s-16.6,0.4-17.9,0.7
	s-5.5,0.8-9.1,1.2c-3.6,0.4-7.1,0.9-7.7,1.2s-2.3,0.4-3.8,0.3c-1.5-0.1-2.8,0-3,0.2c-0.2,0.3-0.5,0.3-0.8,0.2
	c-0.3-0.2-0.5-0.1-0.5,0.3c0,0.3-0.2,0.5-0.4,0.5c-0.9-0.2-5.7,0.8-5.7,1.2c0,0.5-4.2,1.4-5.7,1.2c-0.6-0.1-1.5,0.4-2.1,1
	s-1.5,1.1-2,1.2c-0.5,0-2.4,0.1-4.3,0.2c-1.8,0.1-4.3,0.4-5.5,0.8c-1.2,0.4-3.1,0.8-4.3,0.9c-1.1,0.2-2,0.5-1.8,0.8
	c0.5,0.8-0.7,1-10.3,1.8c-0.5,0-0.9,0.3-0.8,0.6c0.1,0.3-0.4,0.7-1,0.8c-0.6,0.2-1.7,0.8-2.5,1.3c-1,0.7-3.1,1-7.5,1.3
	c-3.3,0.2-6.6,0.3-7.3,0.3c-0.7,0-2,0.3-3,0.8c-1,0.5-1.8,0.7-2,0.4c-0.5-0.7-2.4-1.4-2-0.7c0.4,0.7-0.1,0.7-1.6-0.1
	c-3-1.6-17-0.4-18.5,1.6c-0.5,0.6-0.5,1-0.1,1.2c0.3,0.1,0.6,0.4,0.6,0.7s-0.3,0.4-0.8,0.2c-0.4-0.2-0.9,0-1.1,0.3
	c-0.5,0.9,2.8,0.7,4.6-0.2c0.8-0.4,2.6-0.9,4-1.2c1.4-0.2,2.9-0.5,3.5-0.6c0.5-0.1,1,0.1,1,0.5c0,0.5,0.7,0.7,2.3,0.5
	c1.8-0.1,2.1-0.1,1.4,0.4c-0.5,0.3-0.9,0.8-0.7,1c0.3,0.5-2.8,1.1-8.7,1.5c-3.4,0.3-4.5,0.2-4.8-0.4c-0.3-0.6-0.5-0.6-0.5-0.1
	c0,1-3.3,0.9-4.5-0.2c-0.6-0.5-1-0.7-1-0.4c0,0.3-1.8,0.4-4.6,0.1c-2.5-0.2-6.4-0.5-8.7-0.7s-5-0.6-6-0.9c-1-0.4-2.4-0.5-3.2-0.4
	s-1.5,0-1.7-0.3c-0.2-0.3-0.1-0.4,0.4-0.1c0.4,0.3,0.6,0.2,0.4-0.1c-0.4-0.7-3-1.3-6.2-1.4c-1.8-0.1-2.2-0.3-2.3-1.3
	c-0.1-1.1,0.3-1.2,3.6-1.6c2-0.2,4.3-0.4,5-0.3l1.4,0.1l-1.5-0.8c-2.5-1.4-5-2-9.9-2.3c-2.6-0.2-6.3-0.7-8.3-1.2
	c-4.5-1.1-20.3-1.2-21-0.1c-0.2,0.4-0.7,0.5-1.1,0.3c-0.9-0.6-11.1-0.8-10.7-0.2c0.3,0.5,0.2,0.5-7,0.8c-5.1,0.2-7.2,0.3-14.9,1.3
	c-3.5,0.4-5.5,0.2-7.5-0.9c-0.8-0.5-0.7-0.7,1.4-2c1.6-1,3.6-1.6,6.6-2c5.1-0.6,10-1.5,13.5-2.2c2.1-0.5,2.5-0.8,2.3-1.6
	c-0.2-0.6-0.6-0.9-1-0.7c-0.4,0.2-0.8,0-0.8-0.3s0.4-0.6,1-0.6c0.8,0,0.8-0.1,0.1-0.5c-0.5-0.3-0.6-0.5-0.2-0.5
	c0.4,0,0.5-0.4,0.4-0.8c-0.2-0.6,0.3-1.1,1.8-1.8l2.1-0.9l-5.4-0.3c-3-0.2-6.9-0.3-8.7-0.3c-1.8,0-3.3,0-3.3,0c0,0,0.5-0.6,1.1-1.3
	c0.6-0.7,1.1-1.1,1.1-0.9s0.6,0,1.2-0.4c0.7-0.4,3.1-1.1,5.3-1.4c2.3-0.3,5.1-1,6.3-1.4c1.2-0.4,3.1-0.8,4.2-0.8
	c3.1,0,10.8-2,8.6-2.2c-0.3,0-1-0.2-1.6-0.3c-0.6-0.1-1.4-0.3-1.8-0.4c-1.3-0.3-1.3-0.8-0.2-1.2c0.6-0.2,1.8-1,2.6-1.7
	s2-1.3,2.7-1.3c0.7,0,1.5-0.3,1.9-0.8c0.5-0.6,0.1-0.8-2.6-1.1c-1.8-0.2-3.9-0.5-4.8-0.6c-2.2-0.3-10.8-0.3-11.4,0.1
	c-0.8,0.5-7.1,0.7-7.1,0.3c0-0.2,0.4-0.8,0.8-1.1c0.5-0.4,0.8-0.9,0.8-1.3s-0.2-0.4-0.4-0.2c-0.2,0.2-0.7,0.1-1.1-0.3
	c-0.4-0.3-0.7-0.4-0.7-0.1c0,0.3-0.4,0.5-0.8,0.5c-1.3,0-1-0.6,0.9-1.4c2-0.9,1.8-1.3-1.5-2c-3-0.7-3.6-1.7-1.4-2.6
	c2.2-0.9,12.7-2.1,18.7-2.1c2.8,0,5.8-0.2,6.6-0.4l1.5-0.4l-1.6-1.3c-0.9-0.7-2-1.3-2.5-1.3c-1.3,0-1.7-0.9-1-2.2
	c0.7-1.4,5.5-3.9,7.5-3.9c0.8,0,1.3-0.2,1.1-0.6c-0.2-0.3-0.8-0.6-1.4-0.6c-0.9,0-2-1.4-1.8-2.3c0.2-1-8.6,0.1-9.3,1.2
	c-0.6,0.8-14.7,2.9-16,2.4l-1.3-0.5l1.3-0.7c0.7-0.4,5.3-1.4,10.2-2.2c9-1.5,11.1-2.6,5.3-2.6c-1.8,0-3.5-0.3-4-0.8
	c-0.8-0.6-1.8-0.6-6.3-0.1c-8.2,1-13,1.7-14.1,2c-0.7,0.2-1,0.1-0.8-0.6c0.2-1,1.9-2.1,4.6-3.1c2.3-0.8,0.9-1.5-2.1-1.1
	c-1.3,0.2-3.4,0.6-4.8,0.8l-2.5,0.4l2.1-2c1.1-1.1,2.1-2.1,2.1-2.2s-1.5-0.4-3.4-0.6c-4.5-0.5-6.8-1.8-6.8-3.6c0-1,3.6-2.2,6.9-2.5
	c1.4-0.1,4.5-0.6,6.9-1.1c2.4-0.5,6.2-1,8.3-1.1s5.4-0.5,7.2-0.8c11.3-2,13.9-2.5,14.3-2.8c0.3-0.2-0.6-0.6-1.9-0.9
	c-1.4-0.3-2.5-0.9-2.5-1.3c0-0.9,5.6-2.9,10.6-3.8c2.5-0.4,4.3-1.1,4.9-1.7c0.5-0.6,2.4-1.3,4.2-1.7c4.1-0.8,4-1.6-0.5-3.3
	c-1-0.4-1.6-0.9-1.5-1.3c0.3-0.8,2.9-2,4.2-2c0.6,0,0.9-0.2,0.7-0.6c-0.2-0.3-2.2-0.6-4.4-0.6c-3.7,0-5.2-0.6-3.4-1.3
	c1.6-0.6-6.4-0.3-10.4,0.5c-5,0.9-7.7,0.5-7.7-1.1c0-0.8,1.4-1.8,5.4-3.8c3.7-1.9,5.2-2.9,4.7-3.2c-1-0.6,0-1.2,3.7-2.5
	c5.2-1.7,9.4-4.6,8.8-6.2c-0.4-1.1,1.7-1.6,10.1-2.8c4.2-0.6,8.4-1.5,9.3-1.9c0.9-0.5,2.9-1,4.4-1.2c4.1-0.5,12-2.5,13.2-3.3
	c0.6-0.4,1.8-0.8,2.8-0.8c0.9,0,2.2-0.3,2.8-0.5c0.9-0.4,0.7-0.5-1.1-0.6c-4.7-0.2-7.2-0.6-7.8-1.5c-0.4-0.6-1.1-0.7-1.9-0.5
	c-1.1,0.3-1.1,0.3-0.3-0.3c0.5-0.3,1.4-0.5,1.9-0.5c0.5,0.1,1.3-0.1,1.7-0.3c0.4-0.3,1.3-0.2,2.1,0.3c1.1,0.6,1.6,0.6,2.4,0.1
	c0.7-0.4,1.2-0.5,1.4-0.1c0.2,0.3,1.7,0.5,3.5,0.6c1.7,0,3.8,0.4,4.5,0.8c1.7,0.9,2.2,1,2.2,0.3c0-0.3-0.4-0.6-0.9-0.6
	s-0.7-0.2-0.6-0.5c0.2-0.3-0.2-0.6-0.9-0.8c-0.6-0.2-1-0.6-0.9-1c0.2-0.7,2.7-1.2,10.4-1.8c6.9-0.6,8.8-0.9,8.8-1.4
	c0-0.3-0.4-0.5-0.8-0.5c-0.5,0-0.8-0.5-0.8-1.1c0-0.8,0.4-1.1,1.4-1.1c1.6,0,1.9-0.9,0.4-1.2c-0.5-0.1-3.3-0.1-6.2,0
	c-8.4,0.5-11.7,0.3-13.5-0.6c-0.9-0.5-1.8-0.8-2-0.7c-0.2,0.1-0.3-0.5-0.1-1.3c0.3-1.9-0.5-2.2-6.2-2.3c-3.4-0.1-3.7-0.2-2.5-0.8
	c1.9-1,9.1-2.4,13.3-2.7c2.2-0.1,4.2-0.6,5-1.1c1.6-1.1,2.5-1.1,3.6-0.1c0.5,0.5,1.8,0.8,3.1,0.8c4.1,0,19.4-1.6,21.4-2.2
	c1.9-0.6,2-0.7,1.6-2.5c-0.3-1.1-0.2-2.1,0.1-2.5c0.4-0.4,0.4-0.8-0.1-1.3c-1.3-1.6,0.4-1.9,8.4-1.7c6.3,0.2,8.2,0.1,9.5-0.6
	c1.3-0.7,7.4-1.6,11.5-1.8c0.6,0,2.3-0.3,3.9-0.5l2.8-0.5l-2.5-0.4c-1.4-0.2-5.5-0.3-9.1-0.1s-8.9,0.2-11.6,0.2
	c-2.7,0-8.1,0.3-11.9,0.8c-7.5,1-15.3,1.7-18.6,1.6c-1.2,0-2.3,0.2-2.5,0.5c-0.2,0.3-1.1,0.5-2.1,0.6c-0.9,0-1.7,0.3-1.7,0.5
	c0,0.3-0.6,0.3-1.2,0.1c-1-0.3-1.1-0.2-0.4,0.2c0.7,0.5,0.7,0.6-0.1,0.6c-0.5,0-1,0.3-1,0.6c0,0.4-0.5,0.3-1.4-0.3
	c-1.5-1-2.2-1.1-1.7-0.4c0.2,0.3-0.2,0.6-0.8,0.8c-0.6,0.2-1.1,0-1.1-0.4c0-0.4-0.9-0.6-2.1-0.6c-1.3,0-2,0.2-1.9,0.7
	c0.1,0.5-0.5,0.6-1.9,0.4c-2.3-0.3-4.6-1.6-4.6-2.6c0-0.4-0.2-0.4-0.5,0.2c-0.4,0.6-0.5,0.5-0.5-0.7c0-2,0.9-3.7,2-3.7
	c0.5,0,0.7-0.2,0.5-0.6s0.1-0.6,0.7-0.6c1.8-0.1,3-0.4,4.2-1.2c1.1-0.7,3.7-0.4,3.7,0.4c0,0.2-0.3,0.1-0.7,0
	c-0.4-0.2-1.1,0.1-1.5,0.7c-0.7,0.8-0.7,0.9,0,0.5c0.6-0.4,0.7-0.2,0.4,0.5c-0.2,0.6-0.1,1.2,0.3,1.5c1.1,0.7,1.9,0.5,1-0.1
	c-0.6-0.4-0.3-0.5,1.3-0.3c1.2,0.2,2.6,0,3.1-0.3c0.8-0.5,1.2-0.5,1.8,0c0.7,0.5,0.9,0.5,1.2-0.3c0.2-0.5,0.4-1.2,0.3-1.4
	c0-0.2,0.3-0.4,0.7-0.4c0.4,0,0.9-0.3,1-0.6s0.9-0.7,1.8-0.8c0.9-0.1,1.9-0.6,2.2-1s0.8-0.7,1.1-0.4c0.2,0.2,0.3,0,0.1-0.6
	c-0.4-1.2,0.6-1.3,1.1-0.1c0.3,0.8,0.4,0.7,1.4-0.1c1-0.9,1-0.9,1,0.1c0,0.9,0.1,0.9,0.5,0.2c0.8-1.2,0.7-1.5-0.8-1.9
	c-0.9-0.2-1.3-0.7-1.3-1.5c0.1-1.3,2-2.3,4.2-2.1c2.1,0.1,3.9-0.6,3.9-1.5c0-0.6,0.5-0.8,2.1-0.7c2.2,0.2,6-0.5,7.3-1.2
	c0.7-0.4,0.6-0.5-0.3-0.5c-0.6,0-2.3-0.2-3.9-0.3c-4.7-0.4-10.9-0.4-13.2,0c-1.5,0.3-2,0.3-1.8-0.2c0.2-0.4,0.1-0.5-0.4-0.3
	c-0.5,0.2-1.2-0.3-1.8-1.2c-0.7-1.1-0.8-1.6-0.3-1.7c0.4-0.1,0.3-0.5-0.3-1c-0.9-0.7-0.8-0.8,0.7-0.5c0.9,0.2,1.3,0.1,1,0
	c-1.4-0.7-0.6-1.3,1.5-1.3c1.4,0,2.2,0.3,2.2,0.7c0,0.5,0.1,0.5,0.5-0.1c0.3-0.5,0.6-0.5,0.8-0.2c0.4,0.6,1.1,0.6,2.8-0.2
	c0.6-0.3,1.9-0.5,2.9-0.5c2.3,0,3-1.4,0.8-1.4c-0.9,0-1.7-0.4-1.9-0.8c-0.2-0.6,0-0.8,0.7-0.8c0.6,0,1.3-0.3,1.5-0.7
	c0.6-1,2.9-2.2,3.5-1.8c0.3,0.2,0.6,0.1,0.8-0.3c0.2-0.3,1-0.6,1.9-0.6c0.8,0,2.9-0.4,4.5-0.9c2.6-0.8,2.8-1,1.8-1.4
	c-0.7-0.3-5.3-0.4-10.2-0.4c-5,0-9.3-0.1-9.7-0.4c-0.4-0.3-0.9-0.2-1.1,0.2c-0.4,0.7-17.6,1.3-18,0.6c-0.1-0.2-0.7-0.3-1.1-0.1
	c-0.6,0.2-0.7,0.5-0.2,0.7c0.3,0.2-0.1,0.4-1.1,0.4c-0.9,0-1.7-0.2-1.7-0.5s-0.4-0.2-0.8,0.2c-0.5,0.4-1,0.5-1.2,0.3
	c-0.2-0.2,0.2-0.9,1-1.4l1.4-1l-1.4,0.3c-1.2,0.2-1.2,0.2-0.3-0.3c1.6-0.8,4.2-0.7,5.7,0.2c1.5,0.8,3.4,0.6,3.4-0.5
	c0-0.5,1.1-0.7,3.6-0.7c2.3,0,3.6,0.2,3.6,0.6c0,0.3,0.3,0.2,0.7-0.3c0.5-0.7,2-1,5.4-1.3c2.6-0.2,6.3-0.7,8.2-1.1
	c1.9-0.4,4.3-0.8,5.2-0.8c1,0,3-0.4,4.5-0.8c2.6-0.7,2.3-0.7-4.7-0.5c-4.1,0.2-7.8,0.3-8.3,0.3c-0.5,0-6.2,0.6-12.7,1.3
	c-6.5,0.7-13.6,1.4-15.8,1.5c-2.2,0.1-3.8,0.4-3.7,0.6s-0.8,0.4-2.1,0.4c-1.3,0-4.6,0.4-7.3,0.8c-4.7,0.8-15.7,1.5-14.2,1
	c0.4-0.1,0.6-0.5,0.4-0.8s0.4-0.5,1.2-0.5c0.9,0,2.4-0.5,3.5-1.1c1.1-0.6,2.4-1.3,3-1.6c2-0.9,34.6-6.3,42.2-7
	c2.3-0.2,8.9-0.9,14.6-1.5c5.8-0.6,13.4-1.3,16.9-1.6c3.5-0.3,7.6-0.9,9.1-1.3c1.9-0.6,2.8-0.6,3-0.2c0.3,0.6,6.2,0.4,13.2-0.4
	c1.1-0.1,4.4-0.4,7.5-0.6c5.4-0.3,13.7-1.5,18.4-2.5c1.3-0.3,2.6-0.4,2.9-0.2c0.3,0.2,4.1-0.2,8.5-0.9c6.5-1,8.3-1.1,9.3-0.5
	c1,0.6,2.4,0.5,7.3-0.5c8.2-1.6,18.9-3.7,24.2-4.8c2.4-0.5,6-1.2,7.8-1.6c1.9-0.4,4.2-0.8,5.2-0.8c1,0,2.9-0.4,4.3-0.8
	c2.3-0.7,7-1.6,19.6-3.4c6.5-0.9,7.8-1.2,14.4-2.4c3-0.6,8-1.5,11-2c3-0.5,6.3-1,7.2-1.2c6.4-1.1,7.7-1,9,0.1
	c0.7,0.6,1.3,1.4,1.3,1.8s0.2,0.6,0.4,0.6c0.2,0,1,0,1.7,0c1.1,0.1,1.2,0.2,0.7,1.1c-0.7,1.3-0.1,1.9,0.9,1.1
	c1.1-0.9,0.9-0.1-0.4,1.4c-0.7,0.8-2.1,1.5-3.3,1.7c-1.9,0.3-2.1,0.5-1.5,1.2c0.9,1.1,0.1,1.1,35.5-3.1c2.4-0.3,6.8-0.7,9.7-0.8
	s8.1-0.5,11.6-0.8c3.5-0.3,8.1-0.7,10.2-0.8c2.1-0.1,4.8-0.5,6-0.8c1.2-0.3,6-0.6,10.6-0.6c4.6,0,8.7-0.1,9.1-0.3
	c1-0.3,13.9-1,17-0.9c1.4,0.1,2.9,0.4,3.3,0.9c1,0.9,3.7,1,16,0.6c5.7-0.2,10.9-0.7,12.6-1.2c2.2-0.6,5.9-0.8,15.7-0.7
	c7.1,0,18.8-0.1,26.1-0.3c14.8-0.5,14-0.5,29.3,0.2c9.9,0.4,15.6,0.4,24.3,0.1c1.5-0.1,2.3-0.2,1.8-0.4c-0.5-0.1-1-0.5-1-0.8
	c0-0.4,1.5-0.5,4.6-0.3c2.5,0.2,10,0.6,16.7,0.9c6.7,0.3,15.3,0.8,19,1.1c15.2,1.3,21.1,1.7,29,2.2c19.8,1.3,30.2,1.8,41.1,2
	c5,0.1,11.2,0.4,13.8,0.6c2.6,0.2,6.4,0.4,8.6,0.3c2.1,0,6.3,0.2,9.4,0.5s12.9,0.7,21.9,0.8c9,0.1,17.4,0.5,18.8,0.8
	c1.3,0.3,4.4,0.7,6.8,0.8c2.4,0.2,5.1,0.4,6.1,0.6c3.3,0.5,8.4,0.9,15.8,1.1c6.6,0.2,12.9,0.7,22.4,1.7c1.5,0.2,3.6,0.4,4.7,0.5
	c1.1,0.1,3.8,0.3,6.1,0.5s6.1,0.5,8.6,0.7c2.4,0.2,4.5,0.4,4.7,0.5c0.2,0.1,1.7,0.3,3.4,0.5c1.7,0.2,3.5,0.5,3.9,0.6
	c0.4,0.2,3,0.4,5.7,0.5c7.4,0.2,7.4,0.2,7.4,1.1c0,0.5,0.3,0.8,0.6,0.8c0.3,0,0.4-0.3,0.2-0.6c-0.3-0.4-0.1-0.5,0.6-0.3
	c0.5,0.2,1.5,0.4,2.2,0.4c0.8,0,1.2,0.4,1.3,1.1c0.1,1.3-0.2,1.4-1.3,0.3c-1.2-1.2-2.4-1.1-2.1,0.1c0.2,0.6,0.1,0.7-0.2,0.3
	c-0.3-0.4-1.9-0.5-4.9-0.2c-5.2,0.4-9.1,0.3-16.3-0.5c-2.9-0.3-6.6-0.7-8.3-0.9c-1.7-0.2-3.3-0.4-3.7-0.5c-0.4-0.1-0.8,0.2-1,0.6
	c-0.2,0.6-0.8,0.7-2,0.5c-2-0.4-3.2-0.6-8.5-1.1c-2.1-0.2-4-0.5-4.2-0.6c-0.4-0.2-7.8-0.3-17.9-0.1c-6.4,0.1-10.9-0.2-14.3-1
	c-1.9-0.5-15.2-0.6-15.2-0.2c0,0.2,1.7,0.6,3.7,0.8c2,0.2,4.2,0.5,4.8,0.6c4.3,0.8,15.7,1.8,24.8,2.1c2.1,0.1,4.1,0.3,4.4,0.5
	c0.5,0.3,17.4,1.7,18.3,1.4c0.2-0.1,2.3,0.1,4.5,0.3c3.5,0.3,12.5,1,14.8,1.1c0.8,0,0.9,0.7,0.2,1.2c-0.5,0.3-4.7,0.4-8.5,0.2
	c-1.2-0.1-2.3-0.5-2.5-0.9c-0.3-0.5-1.3-0.6-3.7-0.4c-1.8,0.2-3.4,0.5-3.6,0.6c-0.2,0.1-0.7-0.2-1.2-0.6c-0.5-0.5-1-0.6-1.1-0.4
	c-0.3,0.5-11.5,0.3-14.7-0.3c-1.1-0.2-2.9-0.4-4.2-0.5c-1.2-0.1-2.8-0.4-3.5-0.8c-1-0.5-1.2-0.5-1.2,0.1c0,0.4-0.7,0.8-1.8,0.9
	c-4.4,0.4-10.5,0.3-15.3-0.1c-3.5-0.3-5-0.3-4.4,0.1c2.2,1.5-1.9,2.2-8.3,1.5c-5.6-0.6-6.6-0.7-9.1-0.3c-1.3,0.2-3,0.2-3.9-0.1
	c-2.4-0.6-14.7-1.8-20.1-1.8c-2.6,0-6.3-0.2-8.3-0.4c-2-0.2-5.9-0.5-8.8-0.7s-9.7-0.6-15.2-1.1s-13.6-1-18.1-1.2
	c-7.3-0.3-8.2-0.3-8.5,0.5c-0.3,0.8-1.3,0.9-6.5,0.9c-3.4,0-7.3,0.2-8.6,0.4l-2.5,0.4l4.1,0.6c2.3,0.3,5,0.6,6.1,0.6
	c1.1,0,5.4,0.4,9.7,0.8c4.3,0.5,12.3,1.1,17.9,1.5c5.6,0.3,10.8,0.7,11.4,0.9c0.7,0.1,6.3,0.5,12.4,0.8c11.1,0.5,18.8,1,24.7,1.4
	c1.7,0.1,7.4,0.5,12.7,0.8c5.3,0.3,10.1,0.7,10.5,0.8c0.4,0.1,1.3,0.4,1.9,0.7c0.6,0.2,2.1,0.5,3.2,0.6c1.2,0.1,2.4,0.5,2.8,1
	c0.5,0.7,1.9,0.9,7,1c3.5,0.1,6.6,0.3,6.9,0.5c0.3,0.2,2.4,0.5,4.7,0.7c10.9,0.9,21.8,1.5,26.8,1.7c3,0.1,9.5,0.6,14.4,1.1
	s11.1,1,13.8,1.1c18.9,0.7,34,1.6,42,2.4c2.7,0.3,7.5,0.7,10.6,0.9c3.1,0.2,5.8,0.6,6,0.8c0.2,0.3-0.5,0.5-1.5,0.5
	c-1,0-2.5,0.1-3.4,0.2c-0.9,0.1-1.7-0.1-1.8-0.3c-0.1-0.2-1.2-0.1-2.3,0.2c-1.1,0.3-3.6,0.4-5.7,0.2c-2-0.2-12.6-0.5-23.5-0.6
	c-10.9-0.1-24-0.4-29-0.6c-8.9-0.3-11.5-0.1-5.6,0.5c1.6,0.2,3.1,0.4,3.2,0.6c0.4,0.4-1.6,1.4-3.3,1.6c-2,0.3-2.6,1-0.9,1
	c0.7,0,4.6,0.3,8.5,0.6c3.9,0.3,11.7,0.7,17.3,0.8c9.1,0.3,10.1,0.4,10.1,1.3c0,1.2,2.2,1.5,15.6,2c5.4,0.2,9.9,0.6,10.1,0.8
	c0.2,0.3,1.4,0.5,2.7,0.5c4.5,0,3.3,1.5-2.3,2.8c-1.6,0.4-3.7,0.6-4.7,0.5c-6.7-0.4-5,0.7,2.6,1.6c3,0.4,7.3,0.8,9.4,0.9
	c2.1,0.1,6,0.5,8.6,0.8c2.6,0.3,7.8,0.7,11.6,0.9c4.7,0.2,7.1,0.6,7.5,1.1c0.3,0.4,2.3,0.9,4.4,1.1c2.1,0.2,4.1,0.7,4.4,1
	s2.4,0.8,4.6,1c2.2,0.2,4.6,0.7,5.3,1.2c0.8,0.5,3.2,0.9,6.5,1.1c7.1,0.3,12.7,1,13,1.5c0.3,0.5-4.5,1.3-5.3,0.8
	c-0.3-0.2-0.6-0.1-0.6,0.2c0,0.3,0.9,0.7,1.9,0.9c2.1,0.4,2.5,1.1,1,1.7c-1.8,0.7,0.7,1.8,6.4,2.8c4.8,0.8,7.8,1.9,5.6,1.9
	c-2.1,0,1.1,1,4.4,1.4c2,0.2,3.9,0.6,4.2,0.9s2.2,0.8,4.1,1.1c5.3,0.9,5.3,1.5-0.2,2c-2,0.2-3.9,0.6-4.5,1.1
	c-0.8,0.7-1.7,0.8-5.2,0.5c-7.1-0.7-8.5-0.5-9.6,0.9c-0.5,0.7-0.8,1.4-0.7,1.6c0.1,0.2,1.9,0.6,4,0.8c2,0.2,4,0.6,4.3,0.8
	c0.3,0.2,1.7,0.6,3.2,0.8c4,0.6,3.1,1.4-1.4,1.4c-2.2,0-4.2,0.2-4.5,0.4c-0.2,0.2-2.5,0.4-5.1,0.4c-3.3,0-4.8,0.2-5,0.7
	c-0.2,0.5,0.4,0.7,1.9,0.7c1.2,0,3,0.2,4,0.5c1.1,0.3,4,0.7,6.6,0.9c2.6,0.2,5,0.6,5.3,0.9c0.3,0.3,0.8,0.4,0.9,0.2s0.9-0.1,1.6,0.1
	c1,0.4,0.4,0.5-2.6,0.8c-3.5,0.3-7.5,1.1-9.7,1.9c-1.3,0.5,0.7,1.1,7,1.9c3.1,0.4,5.7,0.9,5.7,1.1s1.6,0.2,3.6,0.1
	c2.9-0.2,3.6-0.1,3.6,0.6c0,1-1.7,2.6-2.8,2.6c-0.6,0-0.6-0.1,0-0.5c0.7-0.5,0.7-0.5-0.2-0.5c-0.5,0-1.1,0.4-1.3,0.8
	c-0.3,0.7-1.3,0.8-6.7,0.6c-6.9-0.3-8.5,0.1-7.3,1.6c2.1,2.5,10.7,5.3,16.7,5.3c3.6,0,5.5,0.7,5.5,2c0,0.6-0.9,0.8-4.3,0.8
	c-2.4,0-5.3-0.3-6.5-0.6c-1.2-0.3-6.9-0.7-12.7-0.8c-10.2-0.2-10.5-0.2-10.6,0.9c-0.1,1.1,0.6,1.8,1.8,2c0.3,0,2.7,0.5,5.3,1
	c8.5,1.6,16.1,2.6,23.9,3.1c7.2,0.5,9.6,1.1,8.9,2.3c-0.2,0.3-0.5,0.4-0.8,0.2s-0.5,0-0.4,0.4c0.1,0.4-0.3,0.7-0.8,0.7
	c-0.5,0-0.8,0.1-0.7,0.4c0.1,0.2-0.6,0.6-1.6,0.8c-2.2,0.4-2.8,1.4-1.6,3c0.6,0.9,0.7,1.4,0.2,1.9c-0.7,0.9-0.2,1.4,1.1,1.4
	c0.6,0,1,0.1,1,0.2c0,0.1,0.2,0.7,0.4,1.2c0.3,0.9,0,0.9-4.6,0.6c-2.7-0.2-5.9-0.5-7-0.7c-1.6-0.3-2.1-0.2-2.1,0.5
	c0,0.5-0.4,1.1-0.9,1.4c-1.3,0.7-0.5,3.9,1.1,4.5c1.1,0.5,1.1,0.5,0.1,0.6c-1.1,0.1-1.1,0.1,0,0.5c1.1,0.5-0.4,0.7-6.1,0.8
	c-2.4,0.1-4.1,0.8-4.1,1.7c0,0.5-0.6,0.8-1.5,0.8c-0.8,0-2.1,0.2-2.8,0.3c-1.2,0.3-1.2,0.4-0.3,1.1c0.5,0.4,1.7,0.8,2.5,0.8
	c0.8,0,3.1,0.9,5.2,1.9c2,1.1,4.4,1.9,5.4,1.9c3.3,0,8.6,0.7,8.3,1.1c-0.1,0.2,0.2,0.4,0.7,0.3c0.5,0,1,0.4,1.1,0.9
	c0.3,1.2-3,3.3-4.7,3c-0.7-0.1-1.3,0.1-1.4,0.4c-0.3,0.8-6.7,1-9.3,0.3c-1.1-0.3-6.7-0.6-12.6-0.7c-9.8-0.1-12.7,0.1-9.1,0.9
	c0.8,0.2,2.6,0.6,4,0.9c1.4,0.3,3.5,0.6,4.8,0.6c1.3,0,2.3,0.3,2.3,0.6s0.4,0.6,0.9,0.6s1.4,0.3,2,0.6c1.1,0.6,1.1,0.6-0.2,1.3
	c-2.3,1.1-1.6,2.2,2.2,3.4c2,0.6,3.7,1.5,3.8,1.9s0.5,0.9,0.7,1.1c0.8,0.6-0.2,2.3-1.1,1.9c-0.5-0.2-0.7-0.2-0.5,0
	c0.2,0.2-0.3,1-1.1,1.7c-1,1-2,1.4-3.8,1.5c-1.3,0.1-2.3,0.3-2.1,0.5c0.1,0.2-2.2,0.2-5.1,0.1c-4.2-0.2-5.5-0.1-6.2,0.6
	c-1,0.9-6.5,1.3-9.3,0.7c-1.1-0.3-1.9-0.2-2.1,0.2c-0.2,0.3-1,0.6-1.7,0.6c-1.7,0-3,0.5-3,1.2c0,0.3,0.4,0.5,0.8,0.5
	c0.4,0,1,0.4,1.3,0.8c0.3,0.5,2.4,1.2,5.7,1.9c6.4,1.2,11.1,3.1,10.6,4.3c-0.2,0.4-0.7,0.7-1.1,0.5c-0.4-0.2-0.6-0.1-0.5,0.2
	c0.2,0.3-0.3,1.3-1.1,2.2c-1.1,1.3-1.7,1.6-2.6,1.4c-0.6-0.2-1-0.1-0.8,0.2c0.2,0.3-0.6,0.5-1.6,0.6c-1.1,0-3.7,0.5-5.8,1l-3.9,0.9
	l1.2,1.3c0.7,0.7,1.5,1.3,1.7,1.3c0.3,0,1.4,0.4,2.4,0.9c1.8,0.9,1.9,1,1.1,2.2c-0.5,0.8-0.6,1.4-0.3,1.6c0.3,0.2,0.4,0.6,0.2,0.9
	c-0.2,0.4-0.5,0.3-0.8-0.2c-0.3-0.5-0.6-0.6-0.9-0.2c-0.2,0.3-1.2,0.9-2.1,1.4l-1.7,0.8l1.7,0.2c1.9,0.2,2.9,1.6,1.5,2.1
	c-0.5,0.2-1,0.2-1.1,0c-0.2-0.2-1.1,0.2-2.1,0.7c-1,0.6-2.8,1.2-3.9,1.4c-1.2,0.2-2.4,0.7-2.8,1.1c-1,1-1.3,0.9-6.5-0.4
	c-4.6-1.2-5.9-1.1-7.8,0.7c-1.1,1-1.5,1-4.4,0.5c-3.8-0.7-10.9-0.8-10.5-0.1c0.2,0.3,2.1,0.8,4.3,1.1c5.6,1,6.3,1.2,5.4,1.7
	c-1.6,1,5.6,3.3,12.6,4.1c1.9,0.2,3.6,0.6,3.7,0.8s-0.3,1.1-0.9,1.9c-1.1,1.4-1.1,1.5-0.3,2.5c0.5,0.5,0.9,1.1,0.9,1.3
	c0,0.7-9.3-0.3-12.4-1.3c-4.4-1.4-13.4-2.5-14.2-1.7c-0.4,0.4-0.4,0.8,0,1.3c0.6,0.7,1.5,1,8.8,3c2.3,0.6,3.5,1.2,3.5,1.8
	c0,0.7-0.7,0.8-4.1,0.5c-2.6-0.2-4.2-0.2-4.4,0.2c-0.2,0.3,0,0.6,0.3,0.6c0.4,0,0.5,0.1,0.4,0.3c-0.4,0.4-8.2-1.3-9-1.9
	c-0.6-0.5-8.7-1.7-10.4-1.6c-0.5,0-1,0.4-1,0.8s-0.1,1-0.3,1.4c-0.3,0.7,6.5,2.1,18.1,3.8c1.7,0.3,4.1,0.8,5.2,1.3
	c1.1,0.5,2.8,0.8,3.7,0.8c2.5,0,6.1,1.1,5.5,1.7c-0.3,0.3-3.6,0.6-7.5,0.6c-3.8,0.1-6.9,0.2-6.9,0.3c0.1,0.1,1.3,0.6,2.8,1.2
	c2.6,1,2.7,1.1,1.5,1.7c-0.9,0.5-1.9,0.5-4,0.1c-3.4-0.7-3.8-0.7-3.8-0.1c0,0.3,0.7,0.7,1.6,0.9c3,0.7,2.4,1.4-1.3,1.4
	c-2.1,0-4.2,0.4-5.3,0.9c-1,0.5-2.2,0.7-3,0.5c-1.6-0.5-27.5-0.7-27.2-0.2c0.6,1-6.6,1-12.8,0c-12.5-2.1-23.2-3.3-30-3.4
	c-3.8,0-9.5-0.4-12.7-0.8c-3.2-0.4-8.9-1-12.6-1.3c-3.8-0.3-7-0.7-7.2-0.8c-0.2-0.1-2.2-0.4-4.5-0.6s-5-0.5-6.1-0.6
	c-2.2-0.3-12.3-0.8-19.6-1.1c-5.3-0.2-13.3-0.7-18.8-1.2c-1.8-0.2-8.9-0.4-15.7-0.5c-6.8-0.1-14.9-0.4-17.9-0.7
	c-3-0.2-11.4-0.4-18.7-0.4c-10.9,0-13.2,0.2-13.7,0.9c-0.4,0.7-0.6,0.7-1,0c-0.3-0.5-1-0.7-2.1-0.4c-0.9,0.2-1.9,0.1-2.2-0.3
	c-0.3-0.3-1.4-0.7-2.4-0.7c-1-0.1-2.3-0.3-2.9-0.4c-3.3-1-6.8-1.3-8.1-0.7c-1.1,0.5-3.9-0.1-3.5-0.7c0.1-0.2-2.5-0.5-5.9-0.6
	c-9.1-0.2-10.1-0.3-11.1-1.2c-0.8-0.7-0.9-0.7-0.8,0.3c0.1,0.7-0.1,1-0.6,0.9c-0.5-0.1-1.4-0.2-2.1-0.2s-1.2-0.2-1.2-0.4
	s-0.4-0.6-0.9-0.8c-0.6-0.2-0.8-0.1-0.6,0.5c0.2,0.6,0.1,0.7-0.4,0.4c-0.4-0.2-3-0.5-5.9-0.6c-6.1-0.2-5.2-0.2-33.7-0.1
	c-12,0-23.3-0.1-25.2-0.3s-3.8-0.2-4.3,0c-0.9,0.4-19,1.1-24.5,1c-4.3-0.1-9.2,2.5-6.5,3.4c0.4,0.1,0.1,0.5-0.7,1
	c-0.8,0.4-1.5,0.9-1.7,1.2c-0.6,0.9-5.3,1.4-6.6,0.7c-0.8-0.4-3.1-0.6-6.6-0.5c-2.9,0.1-12.5,0.3-21.2,0.5
	c-8.8,0.2-16.5,0.4-17.3,0.6c-0.7,0.2-3.9,0.4-7,0.4c-3.1,0-6.1,0.4-6.7,0.7c-1.1,0.6-6.2,1.6-7.1,1.4c-1.1-0.3-3-0.2-4.8,0.2
	c-1.1,0.2-2.4,0.4-3,0.3c-0.6-0.1-1.6-0.1-2.2-0.2c-0.6-0.1-3.5,0.2-6.3,0.6c-2.9,0.4-6.3,0.6-7.6,0.6c-1.3,0-2.7,0.2-3,0.5
	c-0.4,0.3-1.5,0.7-2.4,0.9c-1.5,0.3-1.8,0.2-1.8-0.6c0-0.8-0.5-0.9-4-0.5c-2.2,0.2-8,0.4-12.8,0.5c-4.9,0.1-10.2,0.4-11.8,0.8
	c-1.6,0.4-3.1,0.6-3.2,0.6s0,0.4,0.4,0.8c0.4,0.5,1.5,0.8,2.6,0.8c1,0,1.9,0.1,1.9,0.2s0.2,0.6,0.3,1.1c0.5,1.2-1.1,1.1-2.3-0.1
	c-0.7-0.7-1-0.8-1.2-0.3c-0.1,0.4-0.5,0.5-0.7,0.4c-0.3-0.2-0.5-0.1-0.5,0.1s-0.6,0.5-1.2,0.5c-0.7,0-4.5,0.3-8.4,0.7
	s-11.9,0.7-17.7,0.8c-5.8,0.1-11.1,0.4-11.9,0.5c-2.6,0.6-16.7,1.9-24.3,2.2c-14,0.7-24.7,2.7-26.9,5.1c-0.7,0.7-1.9,1.3-2.8,1.4
	c-7.1,0.2-17.1,1-21.4,1.6c-1.8,0.3-5,0.6-7.1,0.8s-5,0.6-6.6,0.9s-2.9,0.5-3,0.5S310.9,516.8,310.9,516.1L310.9,516.1z M310.9,511
	c0-0.6-0.2-0.6-1.1-0.2c-0.6,0.3-1,0.9-0.8,1.4c0.2,0.6,0.5,0.7,1.1,0.2C310.5,512.1,310.9,511.5,310.9,511L310.9,511z M403.9,502.8
	c2.2-0.8,2.1-0.8-2.5-0.5c-10.5,0.6-13.8,0.9-13.8,1.3C387.6,504.3,401.6,503.7,403.9,502.8L403.9,502.8z M147.5,496.2
	c0-0.1-0.4-0.2-0.8-0.2c-0.5,0-0.8,0.2-0.8,0.5c0,0.3,0.4,0.4,0.8,0.2S147.5,496.3,147.5,496.2z M187.5,494.3c0.2-0.3-0.3-0.6-1-0.6
	c-0.8,0-1.5,0.2-1.7,0.6c-0.2,0.3,0.3,0.6,1,0.6C186.5,494.8,187.3,494.6,187.5,494.3z M161.3,491.5c0-0.6-0.7-0.6-1.9-0.2
	c-1.4,0.5-1,1.2,0.5,0.9C160.6,492.1,161.3,491.7,161.3,491.5z M473.6,491.4c1.9-0.5,2.1-0.7,1.2-0.9c-1.5-0.3-19,0.4-28.5,1.2
	c-2.6,0.2,17.2,0.8,21.3,0.6C469.6,492.1,472.3,491.7,473.6,491.4L473.6,491.4z M492.8,489.7c0.6-0.1-0.5-0.2-2.5-0.2
	c-4.7,0.1-6.6,0.6-3.6,1c1.2,0.2,2.8,0.1,3.6-0.1C491.1,490.1,492.2,489.8,492.8,489.7z M140.5,489.8c1.1,0,1.1-0.1-0.1-0.6
	c-1.5-0.6-2.8-0.3-2.8,0.6c0,0.3,0.4,0.5,0.9,0.3C138.9,490,139.8,489.8,140.5,489.8L140.5,489.8z M501.1,489.2
	c0.1-0.1-0.8-0.3-2.2-0.4c-1.3-0.1-2.6,0.2-2.8,0.5c-0.3,0.4,0.4,0.5,2.2,0.4C499.7,489.6,500.9,489.4,501.1,489.2L501.1,489.2z
	 M932.8,482.7c0.2-0.3-0.7-0.5-2.3-0.5c-2.4,0.1-2.5,0.1-1,0.5C931.9,483.3,932.4,483.3,932.8,482.7z M81.9,474.6
	c-0.4-0.2-0.9-0.1-1.1,0c-0.2,0.2,0.1,0.3,0.7,0.3C82.2,474.9,82.3,474.8,81.9,474.6L81.9,474.6z M88.4,473.9
	c1.1-0.4,1.2-0.4,0.3-0.5c-0.6,0-1.6,0.2-2.2,0.5C85,474.5,86.5,474.5,88.4,473.9z M95.8,474.1c0.5-0.2,0.9-0.8,0.9-1.3
	c0-0.8-0.3-0.9-2.3-0.7c-2.5,0.3-4.2,1.3-2.2,1.3c0.7,0,1.3,0.2,1.5,0.6C94,474.5,94.6,474.5,95.8,474.1L95.8,474.1z M992.7,464.5
	c0-0.3-0.4-0.5-1-0.5c-0.8,0-0.8,0.1-0.1,0.5C992.6,465.1,992.7,465.1,992.7,464.5z M109.5,442c-0.4-0.2-0.9-0.1-1.1,0
	c-0.2,0.2,0.1,0.3,0.7,0.3C109.8,442.3,109.9,442.2,109.5,442L109.5,442z M104.9,440.4c0-0.9-1.5-1-3.6-0.2
	c-2.2,0.8-1.7,1.4,1.1,1.2C104.1,441.2,104.9,440.9,104.9,440.4z M115.2,440.8c-0.6-0.9-2.5-1.1-2.5-0.3c0,0.5,0.6,0.8,1.4,0.8
	C114.9,441.3,115.4,441.1,115.2,440.8z M111,440.2c0.6-0.4,0.3-0.5-1.2-0.5c-1.1,0-2.1,0.2-2.1,0.5
	C107.7,440.9,109.9,440.9,111,440.2z M1031.3,375.6c0-0.3-0.2-0.6-0.6-0.6c-0.3,0-0.6,0.2-0.6,0.6s0.2,0.6,0.6,0.6
	C1031.1,376.1,1031.3,375.9,1031.3,375.6z M1035.3,365.3c-0.4-0.2-1-0.2-1.4,0c-0.4,0.2-0.1,0.3,0.7,0.3
	C1035.4,365.6,1035.7,365.4,1035.3,365.3L1035.3,365.3z M1027.1,358.6c-0.7-0.1-1.8-0.1-2.5,0c-0.7,0.1-0.1,0.2,1.2,0.2
	C1027.2,358.9,1027.7,358.8,1027.1,358.6z M1001.5,354.2c0-0.2-2-0.7-4.6-1.1c-2.5-0.4-5.2-0.8-5.9-1c-0.8-0.2-1.2-0.2-1,0.2
	c0.2,0.3,2.5,0.9,5.2,1.2s5.1,0.8,5.4,0.9c0.3,0.1,0.6,0.2,0.7,0.2C1001.5,354.6,1001.5,354.4,1001.5,354.2L1001.5,354.2z
	 M196.3,349.1c1-0.4,0.9-0.5-0.4-0.5c-0.8,0-1.6,0.2-1.8,0.5C193.7,349.7,194.8,349.7,196.3,349.1z M997.7,345.8
	c0-0.3-2.5-0.8-5.5-1.1c-6.9-0.8-8.1-0.8-7.4-0.1c0.3,0.3,3.3,0.8,6.6,1s6.1,0.5,6.2,0.6C997.6,346.3,997.7,346.1,997.7,345.8
	L997.7,345.8z M165.3,339.2c0.2-0.3-0.1-0.5-0.5-0.5c-0.4,0-0.8,0.2-0.8,0.5s0.2,0.5,0.5,0.5S165.2,339.5,165.3,339.2z M239.2,338.2
	c-0.4-0.2-0.9-0.1-1.1,0c-0.2,0.2,0.1,0.3,0.7,0.3C239.5,338.5,239.6,338.4,239.2,338.2L239.2,338.2z M153.5,337.5
	c0-0.3-0.4-0.5-1-0.5c-0.8,0-0.8,0.1-0.1,0.5C153.5,338.2,153.5,338.2,153.5,337.5z M155.7,336.6c0-0.1-0.2-0.2-0.6-0.2
	c-0.3,0-0.6,0.3-0.6,0.6c0,0.3,0.2,0.4,0.6,0.2C155.5,337,155.7,336.8,155.7,336.6L155.7,336.6z M187.2,332.8
	c0.8-0.2,3.1-0.6,5.2-0.8c2.1-0.3,4.7-0.7,5.8-1s1.9-0.6,1.9-0.5c0,0.2,3.8-1,5.7-1.8c2.8-1.2,3-2.1,0.4-2.1c-1.3,0-1.9-0.2-1.9-0.8
	c0-0.8,2.5-1.2,6.6-0.9c1.8,0.1,6.9-0.8,8.1-1.5c0.9-0.5-1.9-1.1-5.5-1.1c-2.4,0-4.4,0.3-6.9,1.3c-1.9,0.8-4,1.4-4.7,1.4
	c-0.9,0-1,0.1-0.3,0.5c0.4,0.3,1,0.4,1.2,0.2c0.2-0.1,0.4,0,0.4,0.2c0,0.5-1.2,0.8-5.4,1.6c-1,0.2-2,0.7-2.1,1.1
	c-0.2,0.6-0.5,0.6-1.2,0.1c-0.7-0.6-0.8-0.6-0.5,0.2c0.2,0.6,0,0.8-0.9,0.8c-0.7-0.1-2,0.1-3,0.4c-1.3,0.3-2.1,0.3-2.6-0.2
	c-0.4-0.4-0.8-0.4-0.8-0.1c0,0.6-4.2,2.4-5.7,2.4c-0.5,0-0.9,0.3-0.9,0.8c0,0.6,0.7,0.7,2.9,0.6C184.5,333.2,186.4,333,187.2,332.8
	L187.2,332.8z M209.9,312.8c-0.4-0.1-1,0-1.3,0.3c-0.4,0.4-0.2,0.5,0.7,0.2C210.1,313.1,210.3,312.9,209.9,312.8z M876.8,310.6
	c0-0.2-0.8-0.5-1.7-0.5c-1-0.1-1.5,0.1-1.3,0.4C874.1,311.1,876.8,311.2,876.8,310.6L876.8,310.6z M211.5,307.1l1.4,0l-1.3-0.5
	c-1.5-0.6-4-0.1-4,0.7c0,0.3,0.6,0.4,1.2,0.2C209.6,307.3,210.7,307.1,211.5,307.1L211.5,307.1z M872.3,307.2c0-0.3-0.4-0.5-0.8-0.5
	c-0.5,0-0.8,0.2-0.8,0.5s0.4,0.5,0.8,0.5C872,307.7,872.3,307.5,872.3,307.2z M874.7,307.3c-0.4-0.2-0.9-0.1-1.1,0
	c-0.2,0.2,0.1,0.3,0.7,0.3C875,307.6,875.1,307.5,874.7,307.3L874.7,307.3z M221,306.2c-0.4-0.2-0.9-0.1-1.1,0
	c-0.2,0.2,0.1,0.3,0.7,0.3C221.3,306.5,221.4,306.4,221,306.2L221,306.2z M159,305.5c0-0.3-0.2-0.6-0.6-0.6c-0.3,0-0.6,0.2-0.6,0.6
	c0,0.3,0.2,0.6,0.6,0.6C158.8,306,159,305.8,159,305.5z M173.4,304c0-0.6-1-0.1-1.3,0.7c-0.3,0.8-0.2,0.8,0.5,0.2
	C173,304.5,173.4,304.1,173.4,304z M178.9,304.1c0-0.5-0.1-0.8-0.2-0.8c-0.1,0-0.4,0.4-0.5,0.8c-0.2,0.5-0.1,0.8,0.2,0.8
	C178.7,304.9,178.9,304.5,178.9,304.1z M901.7,285.2c-0.4-0.2-0.9-0.1-1.1,0c-0.2,0.2,0.1,0.3,0.7,0.3
	C902,285.5,902.1,285.4,901.7,285.2L901.7,285.2z M393.4,274c0.2-0.3,0.1-0.7-0.2-0.8c-0.3-0.2-0.6,0.1-0.8,0.5
	C392,274.6,392.9,274.9,393.4,274L393.4,274z M131.3,511c-0.3-0.4-0.4-0.7-0.1-0.7c0.3,0,0-0.3-0.6-0.6c-1.5-0.8-0.2-1.6,2.7-1.5
	c1.5,0,1.8,0.2,1.1,0.4c-1.1,0.3-1.8,1.7-1,1.7c1.6,0,2.8-0.8,2.5-1.6c-0.2-0.8-0.2-0.8,0.5,0.1c0.9,1.1,5.1,1.4,5.5,0.3
	c0.2-0.5,0.4-0.5,1.1,0c1.1,0.9,1.7,3,0.8,2.7c-0.4-0.1-0.6-0.6-0.5-1c0.1-0.5-0.1-0.5-0.8,0.2c-0.8,0.7-2,0.9-5.9,0.8
	C133.7,511.7,131.7,511.4,131.3,511L131.3,511z M123.8,509.8c-0.7-0.5-0.4-1.7,0.5-1.7c0.6,0,1.2,1.6,0.7,1.9
	C124.7,510.1,124.2,510,123.8,509.8z M135.4,505.3c-0.6-1-0.5-1.1,0.6-1.2c0.7,0,1.6-0.1,2.1-0.2c1.5-0.2,1.7,0.3,0.8,1.4
	C137.6,506.7,136.3,506.7,135.4,505.3z M469.9,501.2c0-0.1,0.2-0.4,0.6-0.6s0.6-0.1,0.6,0.2s-0.2,0.6-0.6,0.6
	S469.9,501.3,469.9,501.2z M476.3,500.8c0.4-0.4,0.8-0.5,1-0.4c0.2,0.2-0.1,0.5-0.7,0.7C475.9,501.4,475.8,501.4,476.3,500.8z
	 M180,499.3c0-0.3,0.4-0.8,0.9-1.2c0.7-0.5,1-0.6,1.5,0c0.5,0.5,0.5,0.8-0.2,1.2C181.2,499.9,180,499.9,180,499.3L180,499.3z
	 M803.3,494.3c0-0.3,0.4-0.6,0.8-0.6c0.4,0,0.9,0.2,1.1,0.6s-0.2,0.6-0.8,0.6C803.8,494.8,803.3,494.6,803.3,494.3z M793.9,493.7
	c0-0.6,1.5-0.7,1.9-0.1c0.1,0.2-0.2,0.5-0.8,0.5C794.4,494.2,793.9,494,793.9,493.7L793.9,493.7z M246.4,492.8
	c-0.5-1.3,0.3-1.5,2.2-0.5c1,0.5,1.6,0.9,1.3,1C247.5,493.6,246.7,493.5,246.4,492.8z M723.8,491.5c0-0.3,0.1-0.6,0.2-0.6
	c0.1,0,0.4,0.2,0.6,0.6s0.1,0.6-0.2,0.6C724.1,492.1,723.8,491.8,723.8,491.5z M715.9,491c-0.2-0.4-0.3-0.8-0.1-1
	c0.5-0.5,1,0.2,0.8,1C716.3,491.6,716.2,491.6,715.9,491L715.9,491z M717.9,491.2c-1.1-0.5-0.8-1.2,0.4-0.9c0.6,0.2,1.1,0.5,1.1,0.8
	C719.4,491.6,719,491.6,717.9,491.2z M982.6,488.4c-0.6-0.6-0.4-1.3,0.5-1.3c0.5,0,0.8,0.4,0.8,0.8
	C983.9,488.8,983.2,489,982.6,488.4L982.6,488.4z M297.4,485c-0.1-0.2,0.2-0.5,0.8-0.5c0.6,0,0.9,0.2,0.8,0.4
	C298.6,485.6,297.8,485.6,297.4,485z M302.4,484.1c0.2-0.5,0.7-0.8,1.2-0.9c0.5,0,2-0.2,3.4-0.3c1.8-0.2,2.3-0.1,1.7,0.3
	c-0.7,0.5-0.7,0.6,0,0.6c0.4,0,0.6,0.2,0.4,0.4c-0.2,0.2-1.8,0.4-3.7,0.5C302.6,484.8,302.1,484.7,302.4,484.1z M77.1,482.7
	c-0.4-0.7,0.6-1.3,1.4-0.9c0.6,0.4,0.2,1.4-0.6,1.4C77.6,483.2,77.3,483,77.1,482.7z M82.3,468.4c0-0.3,0.2-0.7,0.5-0.9
	c0.3-0.2,0.4,0,0.2,0.5C82.7,469,82.3,469.2,82.3,468.4z M86.4,468.1c0-0.4,0.2-0.7,0.5-0.5c0.3,0.2,0.3,0.5,0.2,0.8
	C86.5,469.1,86.4,469,86.4,468.1z M1048.5,396c-0.5-0.3-0.6-0.5-0.3-0.5c0.3,0,0.9,0.2,1.4,0.5s0.6,0.5,0.3,0.5
	S1048.9,396.3,1048.5,396z M141.4,355c0-0.2,0.5-0.4,1.1-0.4c0.6,0,1.1,0.2,1.1,0.5c0,0.3-0.5,0.5-1.1,0.4
	C141.9,355.5,141.4,355.3,141.4,355z M164.5,346.9l-1.3-1l3.3-0.4c1.8-0.2,4.6-0.5,6.2-0.5c1.6,0,2.9-0.2,2.9-0.4
	c0-0.4,3.3,0.4,3.8,1c0.2,0.2-0.4,0.2-1.4,0c-1-0.2-2.3,0-3.3,0.5c-0.9,0.5-2.9,0.9-4.5,0.9c-1.6,0-2.9,0.3-2.9,0.5
	C167.3,348.3,165.8,348,164.5,346.9L164.5,346.9z M157.5,347.1c0.2-0.2,0.7-0.2,1.1,0c0.4,0.2,0.3,0.3-0.3,0.3
	C157.7,347.4,157.4,347.3,157.5,347.1L157.5,347.1z M147.5,339.5c0-0.6,0.1-0.9,0.3-0.7c0.2,0.2,0.2,0.7,0,1.1
	C147.7,340.2,147.5,340.1,147.5,339.5z M162.6,334.8c0.2-0.2-0.2-0.9-0.8-1.4c-1.1-1-1.1-1,2.3-2.6c4-1.9,4.4-2,4.4-0.5
	c0,0.7-0.4,1.1-1,1.1c-0.8,0-0.8,0.1-0.2,0.5c0.4,0.3,1.2,0.4,1.8,0.3c0.6-0.1,1,0.1,1,0.4c0,0.3-0.8,0.5-1.8,0.5
	c-1-0.1-2.3-0.1-2.9,0c-0.9,0.1-1,0.2-0.3,0.6c0.7,0.5,0.7,0.5-0.1,0.5c-0.5,0-1,0.3-1,0.6c0,0.3-0.4,0.6-0.9,0.6
	S162.4,335.1,162.6,334.8L162.6,334.8z M169.6,330.4c-0.6-0.3-0.5-0.6,0.1-1.1c0.9-0.7,1.6-0.1,1,0.9
	C170.5,330.5,170,330.6,169.6,330.4z M150.5,307.1c-0.2-0.3,0-0.6,0.5-0.6c0.5,0,1,0.2,1.2,0.6c0.2,0.3,0,0.6-0.5,0.6
	C151.2,307.7,150.7,307.4,150.5,307.1z M161.8,304.6c0.8-1,1.1-1.1,1.1-0.3c0,0.3-0.4,0.6-0.9,0.8
	C161.3,305.4,161.2,305.4,161.8,304.6L161.8,304.6z M942.1,295.7c0.6-0.6,4.2-1.2,4.9-0.7c0.4,0.3,0.5,0.5,0.2,0.5
	C944.2,295.9,941.8,296,942.1,295.7z M938.7,295.1c-0.5-0.3-0.1-0.5,1-0.5c0.9,0,1.7,0.2,1.7,0.5
	C941.3,295.7,939.6,295.6,938.7,295.1L938.7,295.1z M924.5,294.4c-2.4-0.5-8.1-0.9-18.8-1.2c-3.7-0.1-7.2-0.5-7.9-0.8
	c-0.7-0.4-3.2-0.6-6.2-0.5c-2.7,0.1-5,0.1-5,0c0-0.2,3.2-1.8,3.6-1.8c0.2,0,0.2,0.2,0,0.6c-0.2,0.3,0.4,0.6,1.3,0.6
	c0.9,0,1.7-0.2,1.7-0.6c0-0.3,0.3-0.6,0.6-0.6c0.3,0,0.4,0.3,0.2,0.7c-0.3,0.5-0.2,0.5,0.4,0.1c0.4-0.3,1.3-0.5,1.9-0.5
	c0.6,0,2.4,0.1,4,0.1c1.6,0,2.8,0.3,2.7,0.5c-0.1,0.2,1.3,0.4,3.1,0.3c1.9,0,3.8,0.2,4.4,0.4c0.6,0.3,1,0.3,1-0.1
	c0-0.3,0.3-0.4,0.7-0.2c0.4,0.2,2.8,0.5,5.4,0.6c2.6,0.1,4.7,0.2,4.7,0.2c0,0,1.2,0.1,2.8,0.2c1.5,0.1,2.8,0.2,2.9,0.3
	c0.1,0.1,0.7,0.3,1.7,0.5c0.4,0.1-2.2,1.7-2.6,1.6C926.8,294.9,925.7,294.6,924.5,294.4L924.5,294.4z M902.2,291.6
	c0-0.3-0.5-0.5-1.1-0.5c-0.6,0-1.2,0.2-1.4,0.5c-0.2,0.3,0.3,0.5,1.1,0.5C901.5,292.1,902.2,291.9,902.2,291.6z M931.7,290
	c-0.2-0.3-0.6-0.4-0.9-0.2c-0.3,0.2-0.5,0.1-0.5-0.2c0-1.1,0.9-1.1,1.6,0c0.4,0.6,0.6,1.1,0.4,1.1S931.9,290.3,931.7,290L931.7,290z
	 M919.9,287.8c-0.6-0.6-1.2-0.9-1.3-0.8c-0.1,0.1-1.5,0.3-2.9,0.4c-2.6,0.2-5.7-1-4.9-1.8c0.6-0.6,4.5-0.5,5.3,0.2
	c0.9,0.7,2.4,0.7,3.1,0c0.6-0.6,3.4-0.5,3.8,0.2c0.5,0.9-0.3,2.8-1.1,2.8C921.3,288.9,920.4,288.4,919.9,287.8L919.9,287.8z
	 M925.6,288.3c-0.2-0.4-0.2-0.5,0.2-0.3c0.3,0.2,0.8,0.1,0.9-0.2c0.5-0.8,1.2-0.7,1.2,0.3C927.9,289,926.1,289.2,925.6,288.3
	L925.6,288.3z M280.1,284.2c0.2-0.2,0.7-0.2,1.1,0c0.4,0.2,0.3,0.3-0.3,0.3C280.2,284.5,279.9,284.3,280.1,284.2L280.1,284.2z
	 M391.5,268.5c0-0.3,0.1-0.6,0.2-0.6s0.4,0.2,0.6,0.6c0.2,0.3,0.1,0.6-0.2,0.6S391.5,268.8,391.5,268.5z M404.3,268.5
	c-0.9-0.7-0.7-1.6,0.3-1.3c0.6,0.2,1-0.1,1.1-0.6c0.1-0.5,0.1-1.2,0.2-1.7s0.5-0.9,1.1-0.9c0.6,0,1.2-0.1,1.4-0.2
	c0.2-0.1,1.2-0.3,2.1-0.6c2-0.5,3.1-1.4,2.7-2c-0.2-0.3,0.2-0.5,0.8-0.5s1.2,0.3,1.4,0.7c0.2,0.5,0.4,0.5,0.7,0.1
	c0.8-1.1,2.5-1.4,3.4-0.7c0.7,0.6,0.8,0.6,0.4-0.1c-0.4-0.6-0.2-0.7,0.5-0.4c0.5,0.2,1.3,0.4,1.7,0.4s0.9,0.5,1.1,1
	c0.2,0.7,0.7,1,1.3,0.8c1.4-0.4,1.3-1.7-0.2-1.5c-1.1,0.2-1.1,0.2,0-0.3c0.6-0.3,1.9-0.5,3-0.6c1,0,3.4-0.3,5.2-0.6
	c4.8-0.8,16.9-2.1,22.4-2.5c2.6-0.2,5.8-0.4,7.2-0.5c2.9-0.3,8.6-0.7,16-1.1c2.9-0.2,6.9-0.5,8.8-0.6c4.7-0.4,12.2-0.4,13.2-0.1
	c0.5,0.2,1.9,0.5,3.2,0.7c1.3,0.2,2.3,0.6,2.3,0.8c0,0.2-0.6,1-1.4,1.8c-1.1,1.1-1.9,1.4-4.1,1.3c-1.7,0-2.7,0.2-2.6,0.5
	c0.1,0.3,2.1,0.6,4.4,0.6c3.7,0,6.1,0.8,5.3,1.5c-0.4,0.4-7.7,0.7-7.7,0.4c0-0.2-1.7-0.2-3.7-0.1c-2.1,0.1-5.2-0.1-6.9-0.3
	c-1.7-0.3-3.3-0.4-3.4-0.2c-0.1,0.1-1.3,0.3-2.6,0.4s-3.1,0.3-3.9,0.5c-0.9,0.3-1.8,0.2-2.2-0.2c-0.4-0.3-3.1-0.6-6-0.7
	c-3.6-0.1-5.2-0.3-5-0.7c0.2-0.3-0.1-0.3-0.6,0.2c-0.6,0.5-1.6,0.6-3.2,0.4c-1.5-0.2-2.1-0.2-1.9,0.2c0.4,0.6,0.3,0.6-4.7,0.8
	c-2,0.1-4.1,0.3-4.8,0.5s-1.2,0.2-1.2,0c0-0.2-0.6-0.5-1.4-0.5c-0.8,0-1.4,0.2-1.4,0.4s-0.4,0.4-0.9,0.4s-0.7-0.2-0.6-0.5
	c0.4-0.6-5.3,0.3-5.7,0.9c-0.8,1.1-11.1,2.3-11.1,1.2c0-0.3-0.3-0.6-0.6-0.6s-0.4,0.2-0.3,0.5c0.5,0.8-0.8,1.3-1.6,0.6
	c-0.6-0.5-0.8-0.4-1,0.1c-0.2,0.5-1.1,0.7-2.5,0.6c-1.2-0.1-2.3,0.1-2.3,0.4c0,0.9-2.8,0.3-3.4-0.7c-0.3-0.5-0.8-0.8-1.1-0.7
	s-0.4,0.5-0.3,0.8c0.2,0.3-0.1,0.6-0.5,0.8c-0.4,0.2-1,0.1-1.1-0.2c-0.2-0.3-0.9-0.2-1.8,0.3C410.3,268,405,269,404.3,268.5
	L404.3,268.5z M396.4,266c0-1,0.3-1.1,0.8-0.3c0.2,0.3,0.1,0.7-0.2,0.9C396.7,266.7,396.4,266.5,396.4,266z M398.5,265.1
	c0.3-0.3,0.9-0.5,1.3-0.3c0.4,0.1,0.2,0.4-0.6,0.6C398.3,265.6,398.1,265.5,398.5,265.1L398.5,265.1z M588.7,263.7
	c-0.7-0.1-1.2-0.4-1.2-0.7c0-0.7,2.4-0.3,2.6,0.4c0.1,0.4,0.1,0.6,0,0.6C590,263.9,589.4,263.8,588.7,263.7L588.7,263.7z
	 M577.3,262.4c1.5-0.7,2.4-0.7,1.4,0c-0.5,0.3-1.2,0.5-1.7,0.5C576.4,262.9,576.5,262.7,577.3,262.4z M580.6,262.5
	c-0.2-0.3,0.2-0.4,0.8-0.2c1.3,0.3,1.5,0.7,0.3,0.7C581.3,263,580.8,262.7,580.6,262.5z M509.5,261.2c-0.9-0.9-0.5-0.9,6.3-1
	c4,0,7.8-0.2,8.5-0.3s1.4,0,1.5,0.2c0.2,0.3,1,0.4,2,0.3c2.5-0.2,2.5,0.6,0,0.9c-1.2,0.1-2,0-1.9-0.2c0.5-0.7-0.4-0.5-1.3,0.4
	c-0.9,0.9-3.3,1.1-3.8,0.3c-0.2-0.4-0.7-0.4-1.4,0c-1.2,0.7-2.4,0.2-1.8-0.7c0.2-0.4,0.1-0.4-0.4-0.1c-0.4,0.3-2.1,0.6-3.8,0.8
	C511.1,262.1,510.3,261.9,509.5,261.2L509.5,261.2z M553.8,261.9c0-0.3,0.1-0.6,0.2-0.6s0.4,0.2,0.6,0.6c0.2,0.3,0.1,0.6-0.2,0.6
	C554.1,262.4,553.8,262.2,553.8,261.9z M531.7,260.7c-0.5-0.3-0.6-0.5-0.2-0.5c0.4,0,0.8,0.2,1,0.5
	C533,261.4,532.8,261.4,531.7,260.7z M747.3,260.7c0.3-0.5-1.8-1-2.2-0.6c-0.6,0.6-3,0.7-3,0.1c0-0.4-1.6-0.4-4.3-0.2
	c-3.3,0.3-4.7,0.1-6.2-0.6c-1.1-0.5-1.5-0.8-1-0.6c0.5,0.1,1,0,1.1-0.2c0.1-0.3,0.5-0.6,1-0.7c0.5-0.1,1-0.4,1.2-0.7
	c0.2-0.3,0.4,0,0.4,0.7c0,1.1,0.1,1.2,1.5,0.4c1.4-0.7,1.6-0.7,2.3,0.2c0.7,0.9,0.7,0.9,0.4,0c-0.3-0.7,0-1,1-1c0.7,0,1.6,0.4,1.9,1
	c0.3,0.5,0.6,0.7,0.6,0.3c0-0.7,1.7-1,1.7-0.3c0,0.2,1.9,0.4,4.2,0.4c2.3,0,4.3,0.2,4.4,0.4c0.2,0.2,0.8,0.4,1.5,0.4
	c0.9,0,1,0.1,0.5,0.7C753.6,261,746.9,261.4,747.3,260.7L747.3,260.7z M756.4,260.7c0-0.3,0.2-0.5,0.4-0.5s1.2-0.1,2.2-0.3
	c2.2-0.3,3,0.7,0.9,1C757.8,261.3,756.4,261.2,756.4,260.7z M716.7,258.8c0-0.3-0.9-0.6-2.1-0.6c-1.1,0-2.3,0.2-2.5,0.6
	c-0.3,0.4-0.4,0.4-0.4,0c0-0.7-3.3-0.9-3.3-0.2c0,0.3-0.2,0.4-0.5,0.2c-0.5-0.3-5.4-0.8-10.5-1.1c-1.7-0.1-3-0.2-3-0.3
	c0-0.4-7.3-0.4-7.7,0c-0.8,0.7-6.3,1.1-6.3,0.5c0-0.3-0.4-0.5-0.8-0.5s-0.8,0.2-0.8,0.5c0,0.3-3.9,0.4-10.4,0.3
	c-5.7-0.1-11-0.3-11.7-0.3c-0.7,0-2.2-0.2-3.2-0.5c-1.1-0.3-1.8-0.3-1.8,0c0,0.5-1.9,0.4-2.5-0.1c-0.2-0.2-2.7-0.2-5.6-0.1
	c-3.5,0.1-5.6,0-6.1-0.5c-0.6-0.5-0.8-0.5-0.8,0.1c0,0.5-0.2,0.5-0.4,0.2c-0.2-0.3-3.4-0.6-7.9-0.6c-4.1,0-16.5-0.2-27.6-0.4
	c-11.1-0.2-25.3-0.3-31.6-0.4c-6.3,0-11.5-0.2-11.5-0.4c0-0.2-1.4-0.3-3-0.3s-3,0.2-3,0.4s-0.3,0.4-0.6,0.4c-0.3,0-0.4-0.2-0.2-0.6
	c0.2-0.3,0-0.6-0.5-0.6c-0.5,0-0.9-0.2-0.9-0.6c0-0.3-0.3-0.6-0.6-0.6s-0.4,0.2-0.2,0.6c0.2,0.3-0.4,0.5-1.5,0.5
	c-1.4,0-1.6-0.1-1-0.5c0.6-0.4,0.6-0.5,0.1-0.5c-0.6,0-0.5-0.2,0.1-0.8c0.5-0.5,1.3-0.8,2-0.8c0.6,0,1.1-0.3,1.1-0.6
	c0-0.3,0.5-0.4,1.2-0.2c0.8,0.3,1,0.2,0.8-0.2c-0.2-0.3-0.2-0.6-0.1-0.6s0.5,0.5,0.7,1.1l0.4,1.1l1.5-1.1c1-0.8,1.6-0.9,1.8-0.5
	c0.3,0.4,0.5,0.4,0.8-0.1c0.4-0.6,4.2-0.7,20.2-0.7c10.9,0,24.2,0.2,29.7,0.4c5.5,0.2,14.5,0.5,20.2,0.7c20.3,0.6,25.5,0.9,26,1.1
	c1,0.6,5.5,1.2,6.1,0.8c0.4-0.3,0.9-0.2,1.1,0.2c0.3,0.5,0.6,0.5,1-0.2c0.3-0.5,0.5-0.6,0.6-0.3c0,0.3,3.4,0.5,9.3,0.5
	c9.2-0.1,25,0.8,25,1.4c0,0.2,1.9,0.3,4.3,0.2c4-0.1,13.3,0.7,15,1.2c0.6,0.2,0.6,0.4,0.1,1.1c-0.6,0.7-0.5,0.8,0.1,0.6
	c0.4-0.1,1.5-0.4,2.3-0.6c0.9-0.2,1.4-0.6,1.2-1c-0.2-0.4,0-0.3,0.3,0.2c0.5,0.7,1.2,0.8,3.7,0.4c1.7-0.2,3.5-0.2,4,0.1
	c0.5,0.3,1.7,0.6,2.5,0.6c1.4,0.1,1.4,0.1,0.2,0.3c-1,0.2-1.2,0.4-0.6,0.7c0.9,0.5,0.1,0.6-7.6,0.7
	C718.5,259.3,716.7,259.1,716.7,258.8L716.7,258.8z M556.2,253.8c-0.2-0.5-0.5-0.7-0.8-0.5c-0.8,0.5-0.6,1.3,0.3,1.3
	C556.2,254.7,556.4,254.3,556.2,253.8z M524,255.7c0.6-1.1,0.5-1.2-0.2-0.9c-0.8,0.3-0.8,0.2-0.3-0.9l0.7-1.2l0.5,1.2
	c0.6,1.4,1.8,1.6,2.2,0.4c0.2-0.5,0.1-0.8-0.1-0.8s-0.4-0.4-0.4-0.8c0-0.7,0.5-0.8,2.7-0.5c1.8,0.2,2.7,0.2,2.7-0.3
	c0-0.3,0.9-0.6,2-0.6c1.3,0,1.8,0.2,1.6,0.6c-0.3,0.4,0,0.4,0.8,0c1-0.5,1.1-0.5,0.8,0.2c-0.2,0.5-0.5,0.8-0.8,0.8
	c-0.3,0-0.5,0.2-0.5,0.6c0,1.2,1,0.5,1.7-1.1c0.8-1.9,0.8-1.9,2.2-1.1c0.7,0.4,0.9,1,0.7,2c-0.1,0.8-0.1,1.4,0.2,1.3
	c0.3-0.1,0.6,0.1,0.8,0.4c0.2,0.3-1.1,0.6-3.2,0.6c-3.2,0.1-3.5,0-4.1-1.2c-0.6-1.3-2.6-1.9-2.6-0.7c0,0.3,0.2,0.4,0.5,0.2
	c0.3-0.2,0.4,0,0.2,0.5c-0.2,0.5-0.7,0.7-1.2,0.5c-0.6-0.2-0.7-0.1-0.5,0.3c0.4,0.7-1.4,1.2-3.5,1c-0.8-0.1-1.8,0.1-2.4,0.3
	C523.4,256.9,523.4,256.8,524,255.7L524,255.7z M539.1,253.7c0.2-0.3-0.1-0.5-0.5-0.5c-0.4,0-0.7,0.2-0.5,0.5s0.4,0.5,0.5,0.5
	C538.7,254.1,538.9,253.9,539.1,253.7z M516.6,255.8c-0.2-0.3,0.2-0.6,0.8-0.8c0.7-0.2,1-0.6,0.8-1.2c-0.2-0.5-0.1-0.9,0.2-0.9
	c0.8,0,0.6,1.8-0.2,2.6C517.3,256.5,517,256.5,516.6,255.8z M519.9,254.3c0.2-0.4,0.4-0.7,0.4-0.7c0.1,0,0.3,0.3,0.4,0.7
	c0.2,0.4,0,0.7-0.4,0.7S519.8,254.7,519.9,254.3z M522.1,252.8c0.6-0.4,1.6-0.8,2.3-0.8c1.3,0,2.2,0.8,1.3,1.3
	c-0.3,0.2-0.6,0-0.7-0.3c-0.2-0.5-0.5-0.5-1.4,0C521.9,253.8,520.8,253.7,522.1,252.8L522.1,252.8z M514.7,252.7
	c0.2-0.2,0.7-0.2,1.1,0c0.4,0.2,0.3,0.3-0.3,0.3C514.9,253,514.6,252.9,514.7,252.7L514.7,252.7z M543.9,252.5
	c-0.7-0.5-0.7-0.5,0.1-0.5c0.5,0,1,0.2,1,0.5C545,253.1,544.9,253.1,543.9,252.5L543.9,252.5z M540.9,251.6
	c-0.3-0.7-0.1-0.7,0.8-0.3c1.3,0.7,1.4,1.1,0.3,1.1C541.6,252.5,541.1,252.1,540.9,251.6z"/>
</svg>
